<?xml version="1.0" standalone="no"?>
<!DOCTYPE svg PUBLIC "-//W3C//DTD SVG 20010904//EN"
 "http://www.w3.org/TR/2001/REC-SVG-20010904/DTD/svg10.dtd">
<svg version="1.0" xmlns="http://www.w3.org/2000/svg"
 width="1309.000000pt" height="332.000000pt" viewBox="0 0 1309.000000 332.000000"
 preserveAspectRatio="xMidYMid meet">
<metadata>
Created by potrace 1.16, written by Peter Selinger 2001-2019
</metadata>
<g transform="translate(0.000000,332.000000) scale(0.100000,-0.100000)"
fill="#000000" stroke="none">
<path d="M1525 3290 c-155 -20 -356 -70 -465 -117 -292 -126 -519 -295 -705
-526 l-38 -48 386 -382 c213 -210 529 -524 702 -696 l314 -315 691 693 c379
381 690 697 690 703 0 18 -168 205 -241 268 -113 97 -250 187 -381 249 -247
119 -458 170 -718 176 -91 2 -196 0 -235 -5z m415 -312 c271 -37 581 -181 741
-344 l44 -44 -500 -500 c-275 -275 -504 -500 -510 -500 -6 0 -234 224 -509
499 -414 414 -497 501 -489 516 5 9 41 43 78 76 190 164 511 289 805 313 65 5
253 -3 340 -16z"/>
<path d="M4344 2068 c1 -398 -1 -820 -4 -938 l-4 -215 174 0 174 0 -5 115 c-2
63 -4 198 -4 300 l0 185 427 3 427 2 28 -41 c15 -22 73 -95 128 -162 132 -161
210 -260 267 -341 l48 -66 190 0 c104 0 190 4 190 9 0 9 -179 226 -289 350
-95 108 -211 254 -211 268 0 6 19 14 43 18 114 19 218 75 307 164 124 125 180
286 167 480 -20 281 -172 462 -460 545 -128 37 -320 46 -1003 46 l-591 0 1
-722z m1236 472 c278 -15 381 -48 456 -147 70 -91 94 -239 63 -378 -25 -113
-152 -214 -310 -247 -49 -10 -190 -13 -589 -13 l-525 0 -3 385 c-2 333 0 386
13 396 20 15 643 18 895 4z"/>
<path d="M191 2373 c-101 -202 -151 -410 -158 -658 -5 -179 12 -325 57 -486
97 -351 341 -698 635 -900 121 -83 316 -183 435 -222 110 -36 163 -49 285 -69
112 -18 157 -20 330 -15 186 5 250 13 378 47 20 6 52 14 70 19 108 28 286 111
405 187 376 242 625 586 731 1012 34 139 44 238 39 422 -4 144 -10 196 -32
294 -33 144 -75 264 -127 369 -34 66 -42 76 -57 68 -9 -5 -73 -66 -142 -135
-106 -107 -123 -129 -114 -144 91 -147 131 -343 104 -509 -24 -152 -128 -317
-254 -406 -121 -87 -205 -116 -356 -124 -136 -7 -225 12 -348 72 l-93 46 -97
-89 c-53 -50 -113 -106 -132 -126 l-34 -36 -133 132 -133 133 -27 -18 c-51
-33 -148 -75 -214 -92 -88 -23 -265 -24 -343 -1 -167 49 -321 168 -400 310
-55 99 -76 184 -76 309 0 155 32 266 114 399 9 15 -9 38 -124 153 -74 74 -138
135 -142 135 -4 0 -25 -35 -47 -77z"/>
<path d="M10540 2326 c-105 -21 -151 -37 -222 -80 -67 -41 -238 -195 -238
-215 0 -6 -7 -11 -15 -11 -9 0 -15 9 -15 23 0 32 -42 118 -79 160 -33 37 -127
88 -196 106 -71 18 -236 24 -315 12 -214 -33 -298 -72 -424 -196 -49 -49 -70
-64 -76 -55 -5 7 -6 64 -3 127 l6 113 -137 0 -136 0 -1 -685 c-1 -377 -2 -691
-3 -697 -1 -10 34 -14 137 -16 l137 -3 0 393 c0 453 4 487 69 590 76 120 170
188 313 224 90 23 277 16 333 -13 48 -25 90 -68 104 -106 24 -64 31 -250 25
-665 l-7 -422 140 0 141 0 -5 368 c-4 254 -2 390 6 441 17 109 58 188 136 259
219 201 528 203 626 5 l24 -48 3 -512 3 -513 135 0 135 0 -4 538 c-4 577 -4
578 -58 687 -41 83 -134 152 -244 182 -73 20 -219 24 -295 9z"/>
<path d="M7355 2323 c-117 -6 -285 -41 -365 -77 -59 -26 -133 -89 -172 -146
-40 -60 -82 -189 -76 -236 l3 -29 140 0 140 0 7 47 c16 117 72 191 166 221
116 37 159 42 357 41 276 0 379 -23 471 -107 72 -65 105 -136 114 -247 3 -47
4 -91 2 -99 -4 -10 -28 -12 -121 -7 -796 45 -1091 12 -1259 -139 -75 -67 -96
-125 -97 -255 0 -95 3 -110 27 -156 56 -107 190 -190 362 -224 76 -16 138 -20
274 -20 250 0 388 29 543 112 73 38 177 123 209 171 14 20 30 37 36 37 12 0
25 -110 23 -195 0 -27 4 -62 10 -77 l11 -28 120 0 c89 0 120 3 120 13 0 6 -7
39 -16 72 -13 48 -17 151 -24 505 -8 487 -11 509 -70 596 -55 79 -168 155
-280 189 -122 36 -389 52 -655 38z m637 -766 c75 -7 140 -16 144 -19 12 -13
-15 -119 -47 -186 -72 -146 -275 -244 -566 -272 -140 -14 -319 0 -413 33 -143
49 -206 171 -151 293 38 83 119 127 276 149 116 17 576 17 757 2z"/>
<path d="M12145 2319 c-165 -35 -244 -64 -337 -126 -37 -24 -94 -74 -127 -111
l-61 -67 0 148 0 148 -130 -3 -129 -3 -7 -943 -7 -943 144 3 144 3 -1 60 c0
33 -4 198 -9 368 -6 227 -5 307 3 307 6 0 30 -20 53 -45 113 -122 273 -198
489 -232 90 -14 122 -15 220 -5 257 27 416 104 525 256 107 150 144 270 145
466 0 261 -56 411 -208 552 -138 127 -298 179 -542 177 -69 -1 -143 -5 -165
-10z m192 -190 c165 -22 269 -74 341 -171 81 -108 112 -204 112 -350 0 -111
-13 -175 -56 -265 -87 -183 -245 -266 -509 -266 -209 1 -369 55 -475 162 -92
93 -130 198 -130 356 0 289 164 472 475 530 90 17 145 18 242 4z"/>
<path d="M634 2008 c-58 -113 -74 -266 -40 -380 20 -66 81 -163 131 -206 56
-50 172 -101 257 -113 62 -9 90 -8 152 4 75 15 167 54 173 73 3 9 -637 654
-650 654 -4 0 -14 -14 -23 -32z"/>
<path d="M2445 1719 c-179 -177 -325 -328 -325 -336 0 -16 90 -57 159 -72 122
-26 239 -6 350 58 85 50 144 114 184 199 31 65 32 72 32 197 0 120 -3 135 -29
198 -15 37 -32 70 -37 73 -5 3 -155 -140 -334 -317z"/>
</g>
</svg>
